<svg xmlns="http://www.w3.org/2000/svg" width="34.192" height="27.36" viewBox="0 0 34.192 27.36">
  <path id="user-plus-solid" d="M18.256,6.59A6.639,6.639,0,1,1,11.617,0,6.614,6.614,0,0,1,18.256,6.59ZM0,24.831a9.212,9.212,0,0,1,9.247-9.18h4.74a9.212,9.212,0,0,1,9.247,9.18,1.535,1.535,0,0,1-1.54,1.529H1.54A1.535,1.535,0,0,1,0,24.831Zm26.139-8.768v-3.3H22.819a1.236,1.236,0,1,1,0-2.471h3.319V7a1.245,1.245,0,0,1,2.489,0v3.3h3.319a1.236,1.236,0,1,1,0,2.471H28.628v3.3a1.245,1.245,0,0,1-2.489,0Z" transform="translate(0.5 0.5)" fill="none" stroke="#2a76e8" stroke-width="1"/>
</svg>
